<svg xmlns="http://www.w3.org/2000/svg" xmlns:xlink="http://www.w3.org/1999/xlink" viewBox="0,0,256,256" width="50px" height="50px"><g fill="#ffffff" fill-rule="nonzero" stroke="none" stroke-width="1" stroke-linecap="butt" stroke-linejoin="miter" stroke-miterlimit="10" stroke-dasharray="" stroke-dashoffset="0" font-family="none" font-weight="none" font-size="none" text-anchor="none" style="mix-blend-mode: normal"><g transform="scale(2.56,2.56)"><path d="M48.06641,13.01172c-20.10794,0.099 -34.10355,17.37638 -35.13281,36.9375c-1.06436,20.22287 16.6278,36.08962 36.89844,37.10352c21.17559,1.05878 36.0475,-16.97672 37.0957,-36.89258c1.07944,-20.49457 -16.64586,-36.09062 -36.89648,-37.10351c-0.66113,-0.03306 -1.3162,-0.04812 -1.96484,-0.04492zM48.08203,17.01172c0.57744,-0.00256 1.16113,0.01157 1.75,0.04102c0.21061,0.01053 0.41901,0.03098 0.62891,0.04492l-1.48633,3.98438c-0.13763,0.33746 -0.08079,0.72307 0.14835,1.00647c0.22914,0.2834 0.5943,0.41972 0.9531,0.3558c0.3588,-0.06392 0.65442,-0.31795 0.77159,-0.66305l1.67578,-4.49023c13.60168,1.64065 25.31645,10.40362 29.13477,22.53711l-11.1875,6.9375c-0.31002,0.18541 -0.49596,0.5236 -0.48642,0.8847c0.00953,0.36111 0.21306,0.68901 0.53243,0.8578c0.31937,0.1688 0.70494,0.15225 1.00868,-0.04329l10.69141,-6.63086c0.2691,1.14255 0.46312,2.31329 0.58984,3.50586l-8.41797,4.05469c-0.49781,0.24001 -0.7068,0.83813 -0.4668,1.33594c0.24001,0.49781 0.83813,0.7068 1.33594,0.4668l7.69141,-3.70703c0.02512,0.81126 0.02808,1.62923 -0.01562,2.45898c-0.48567,9.22781 -4.14626,17.89715 -10.11133,24.05664l-3.31641,-3.37891c-0.18634,-0.19472 -0.44339,-0.30599 -0.71289,-0.30859c-0.40716,-0.00384 -0.776,0.23954 -0.93261,0.6154c-0.15661,0.37586 -0.06971,0.80913 0.21972,1.09554l3.30664,3.36719c-0.78887,0.71853 -1.61166,1.39583 -2.46875,2.02734l-3.42969,-6.38672c-0.17322,-0.33347 -0.51876,-0.5417 -0.89453,-0.53906c-0.35267,0.00276 -0.67781,0.19106 -0.85571,0.49558c-0.1779,0.30452 -0.18226,0.68023 -0.01148,0.98879l3.53516,6.58398c-2.2159,1.41285 -4.62615,2.53509 -7.20898,3.30859l-2.36719,-25.09961l7.87305,0.24219c0.27471,0.00811 0.54066,-0.09718 0.73536,-0.29114c0.1947,-0.19396 0.30101,-0.45951 0.29394,-0.73425l-0.29687,-10.78125c-0.00864,-0.30681 -0.15769,-0.59266 -0.4043,-0.77539c0,0 -0.1508,-0.10009 -0.25586,-0.14648c-0.10506,-0.0464 -0.23359,-0.0914 -0.39453,-0.13281c-0.32188,-0.08283 -0.77799,-0.1537 -1.47266,-0.18359c-1.16441,-0.05011 -3.57386,0.17462 -6.52148,0.56836c0.11121,-1.25863 0.40443,-2.24894 0.89062,-2.89062c0.62559,-0.82566 1.48334,-1.309 2.41602,-1.5918c1.86536,-0.5656 3.875,-0.23047 3.875,-0.23047c0.29135,0.05199 0.59076,-0.02773 0.81768,-0.21771c0.22692,-0.18998 0.35805,-0.47071 0.3581,-0.76666l0.00781,-10.61523c0.00063,-0.43923 -0.28539,-0.82746 -0.70508,-0.95703c0,0 -1.19056,-0.34918 -3.19727,-0.26367c-2.00671,0.08551 -4.9263,0.57581 -8.67773,2.14063c-4.10178,1.71095 -5.71336,5.88448 -6.31836,9.43164c-0.44742,2.62325 -0.37516,4.56041 -0.30469,5.62891l-9.62695,0.625c-0.27837,0.01788 -0.53663,0.1512 -0.71241,0.36779c-0.17579,0.21658 -0.25314,0.49674 -0.21337,0.77284l1.47266,10.07617c0.07568,0.52318 0.54544,0.89711 1.07227,0.85352l8.7168,-0.73828l1.25586,26.74609c0.00056,0.00782 0.00121,0.01563 0.00195,0.02344c-4.72352,-0.44615 -9.23846,-1.77877 -13.30469,-3.81445l2.59766,-3.76172c0.2181,-0.30635 0.24591,-0.70914 0.07199,-1.04256c-0.17392,-0.33342 -0.52017,-0.54109 -0.89621,-0.53752c-0.32982,0.00347 -0.63672,0.16934 -0.82031,0.44336l-2.72656,3.94922c-0.60049,-0.3428 -1.19086,-0.6981 -1.76758,-1.07227l3.03711,-3.63281c0.25707,-0.29869 0.31477,-0.7205 0.14736,-1.07726c-0.16741,-0.35676 -0.52873,-0.58194 -0.92275,-0.57509c-0.29465,0.00538 -0.57193,0.14045 -0.75781,0.36914l-3.16016,3.77734c-0.65008,-0.47553 -1.27669,-0.97664 -1.88867,-1.49219l4.31641,-5.02148c0.26083,-0.29534 0.32393,-0.7163 0.16117,-1.07514c-0.16276,-0.35884 -0.52105,-0.58866 -0.91507,-0.58697c-0.29443,0.00182 -0.57309,0.1333 -0.76172,0.35938l-4.29492,4.99609c-0.96654,-0.91554 -1.87053,-1.88509 -2.71289,-2.90039l3.41992,-2.62695c0.34455,-0.25787 0.48549,-0.70725 0.34993,-1.11571c-0.13556,-0.40846 -0.51723,-0.68439 -0.94759,-0.68508c-0.22532,-0.0004 -0.44418,0.07531 -0.62109,0.21484l-3.42969,2.63477c-3.8292,-5.25326 -5.98011,-11.60635 -5.61719,-18.50195c0.12983,-2.46749 0.48403,-4.88298 1.03516,-7.21875l5.25391,1.41992c0.3451,0.09328 0.71374,-0.00467 0.96702,-0.25695c0.25328,-0.25227 0.3527,-0.62053 0.26079,-0.96599c-0.09191,-0.34546 -0.36117,-0.61563 -0.70632,-0.7087l-5.26562,-1.42188c0.34776,-1.19946 0.74831,-2.37355 1.20313,-3.51758l3.20117,1.3125c0.33246,0.14639 0.71816,0.10099 1.00755,-0.1186c0.28939,-0.21958 0.43695,-0.57882 0.38548,-0.93842c-0.05147,-0.3596 -0.29389,-0.66301 -0.63326,-0.79259l-3.17773,-1.30469c0.78879,-1.71254 1.70599,-3.34213 2.73047,-4.88086l5.37891,2.14844c0.51291,0.20495 1.09486,-0.0447 1.2998,-0.55762c0.20495,-0.51291 -0.0447,-1.09486 -0.55762,-1.2998l-4.93164,-1.9707c0.67821,-0.8966 1.395,-1.75647 2.1543,-2.57227l3.32422,2.30078c0.29412,0.20343 0.67442,0.23449 0.99764,0.08148c0.32323,-0.15301 0.54026,-0.46684 0.56935,-0.82327c0.02909,-0.35643 -0.13419,-0.7013 -0.42833,-0.90469l-3.0293,-2.0957c4.76685,-4.50511 10.87545,-7.4378 17.94141,-7.9668l-0.89258,4.73047c-0.06638,0.35137 0.05977,0.71146 0.33091,0.94459c0.27114,0.23313 0.64607,0.30387 0.98352,0.18557c0.33745,-0.1183 0.58614,-0.40767 0.65236,-0.75907l0.97852,-5.19336c0.04072,-0.00034 0.08032,-0.00372 0.12109,-0.00391zM62.56445,28.99219c0.61559,0.01196 0.80373,0.08904 1.04297,0.14062l-0.00781,8.62109c-0.91524,-0.06129 -2.15532,-0.05678 -3.63086,0.39063c-1.2197,0.36983 -2.49518,1.0635 -3.42969,2.29688c-0.9345,1.23337 -1.48252,2.96677 -1.4043,5.23242c0.00999,0.28601 0.14204,0.55404 0.36271,0.73626c0.22068,0.18222 0.50885,0.26117 0.79158,0.21687c3.96857,-0.61615 6.20475,-0.70721 7.38867,-0.65625c0.35434,0.01525 0.45293,0.04629 0.63477,0.07422l0.24805,8.94141l-7.94727,-0.24414c-0.287,-0.0091 -0.56406,0.1056 -0.76065,0.3149c-0.19659,0.20929 -0.29373,0.49299 -0.2667,0.77885l2.50391,26.51367c0.00112,0.01109 0.00242,0.02216 0.00391,0.0332c-2.44948,0.54824 -5.03814,0.78996 -7.74609,0.68164c0.01665,-0.08091 0.02321,-0.16357 0.01953,-0.24609l-1.30469,-27.78516c-0.01287,-0.27113 -0.1354,-0.52538 -0.33944,-0.70438c-0.20405,-0.179 -0.47209,-0.26738 -0.74259,-0.24483l-8.81445,0.74805l-1.17773,-8.07422l9.52734,-0.61719c0.27251,-0.01759 0.52598,-0.14584 0.70156,-0.35499c0.17558,-0.20915 0.258,-0.48099 0.22813,-0.75243c0,0 -0.31612,-2.88765 0.23438,-6.11523c0.5505,-3.22759 1.91897,-6.58978 5.11719,-7.92383c3.54857,-1.48019 6.22639,-1.91304 7.99219,-1.98828c0.31811,-0.01356 0.57019,-0.01766 0.77539,-0.01367zM70.94531,35.37695c-0.38386,-0.06628 -0.78747,0.09536 -1.01172,0.44336c-0.298,0.464 -0.16517,1.08381 0.29883,1.38281c0.464,0.298 1.08381,0.16322 1.38281,-0.30078c0.299,-0.464 0.16322,-1.08286 -0.30078,-1.38086c-0.116,-0.0745 -0.24119,-0.12244 -0.36914,-0.14453zM25.97266,52.14648c-0.38409,-0.06628 -0.78822,0.09536 -1.01172,0.44336c-0.298,0.464 -0.16322,1.08381 0.30078,1.38281c0.464,0.299 1.08186,0.16322 1.38086,-0.30078c0.298,-0.464 0.16517,-1.08481 -0.29883,-1.38281c-0.116,-0.0745 -0.24306,-0.12048 -0.37109,-0.14258zM27.56055,58.99805c-0.38409,-0.06628 -0.78822,0.09536 -1.01172,0.44336c-0.298,0.464 -0.16322,1.08381 0.30078,1.38281c0.464,0.298 1.08186,0.16322 1.38086,-0.30078c0.298,-0.464 0.16517,-1.08186 -0.29883,-1.38086c-0.116,-0.0745 -0.24306,-0.12244 -0.37109,-0.14453z"></path></g></g></svg>