<svg xmlns="http://www.w3.org/2000/svg" xmlns:xlink="http://www.w3.org/1999/xlink" viewBox="0,0,256,256" width="50px" height="50px"><g fill="#ffffff" fill-rule="nonzero" stroke="none" stroke-width="1" stroke-linecap="butt" stroke-linejoin="miter" stroke-miterlimit="10" stroke-dasharray="" stroke-dashoffset="0" font-family="none" font-weight="none" font-size="none" text-anchor="none" style="mix-blend-mode: normal"><g transform="scale(2.56,2.56)"><path d="M76.05273,13.93555c-0.04691,-0.00035 -0.09381,0.00096 -0.14062,0.00391l-51.20898,3.69141c-0.03656,0.0029 -0.07303,0.00681 -0.10937,0.01172c0,0 -1.98082,0.25021 -4.0332,1.53125c-2.05239,1.28104 -4.3207,3.7655 -4.94141,7.74609c-0.31728,2.03221 -0.43953,5.71077 -0.51758,10.41406c-0.07805,4.70329 -0.08228,10.31125 -0.05273,15.70508c0.05884,10.7419 0.24838,20.54516 0.25,20.62891c-0.06384,0.39422 -0.46611,3.00111 0.06055,6.07227c0.28383,1.65515 0.84202,3.44049 2.03906,4.97461c1.19704,1.53412 3.11225,2.72305 5.51953,2.98242c4.33113,0.46666 17.00809,0.39746 29.61523,-0.05469c6.30357,-0.22607 12.51748,-0.55779 17.49609,-0.99609c2.48931,-0.21915 4.66731,-0.46442 6.42188,-0.74414c1.75457,-0.27972 2.97794,-0.48607 4.11328,-1.08594c6.056,-3.19975 6.40625,-10.92578 6.40625,-10.92578c0.00414,-0.05393 0.0061,-0.10802 0.00586,-0.16211l-0.10547,-48.81641c0.16209,-2.66503 -0.61848,-5.21638 -2.42187,-7.10352c-1.83837,-1.92373 -4.53371,-3.13638 -7.99805,-3.83398c-0.13117,-0.02631 -0.26465,-0.0394 -0.39844,-0.03906zM75.84766,17.95508c2.83826,0.60113 4.69006,1.54891 5.71094,2.61719c1.04738,1.09602 1.45762,2.32635 1.31836,4.19531c-0.00394,0.05134 -0.00589,0.10281 -0.00586,0.1543l0.03711,17.45508l-6.07227,2.81445c-0.50105,0.23246 -0.71878,0.82708 -0.48633,1.32812c0.23246,0.50105 0.82708,0.71878 1.32812,0.48633l5.23633,-2.42578l0.00977,4.27539l-9.66992,2.36328c-0.53664,0.13106 -0.86543,0.67234 -0.73437,1.20898c0.13106,0.53664 0.67234,0.86543 1.20898,0.73437l9.19922,-2.24805l0.01367,6.65039l-11.19922,1.98047c-0.35928,0.0544 -0.66079,0.29939 -0.78756,0.63994c-0.12676,0.34055 -0.05884,0.72306 0.17743,0.99915c0.23627,0.27608 0.60369,0.40229 0.95974,0.32966l10.85352,-1.91797l0.01758,8.03711c-3.41406,0.75046 -17.42728,3.76585 -24.66211,4.21289c-0.3612,0.01582 -0.68574,0.22535 -0.84882,0.54802c-0.16308,0.32267 -0.13932,0.70825 0.06216,1.00845c0.20148,0.3002 0.5493,0.46829 0.90971,0.43962c7.3082,-0.45157 20.40197,-3.24776 24.54492,-4.16016l0.00781,3.91797c-0.00389,0.0316 -0.39905,3.14598 -2.01562,5.54297l-3.17578,-3.91211c-0.18918,-0.23993 -0.47766,-0.38021 -0.7832,-0.38086c-0.38839,-0.00057 -0.74198,0.22377 -0.90691,0.5754c-0.16493,0.35163 -0.11137,0.76695 0.13738,1.06522l3.37891,4.16406c-0.28413,0.23505 -0.58422,0.45165 -0.91602,0.62695c-0.06791,0.03588 -1.27252,0.4164 -2.875,0.67188c-0.4763,0.07593 -1.07976,0.1459 -1.64062,0.21875l-1.70313,-3.74023c-0.16571,-0.37802 -0.54662,-0.61541 -0.95898,-0.59766c-0.33455,0.01447 -0.63966,0.19541 -0.81281,0.48203c-0.17315,0.28662 -0.19136,0.64088 -0.04852,0.94375l1.4375,3.16016c-0.77757,0.08249 -1.5476,0.16573 -2.41602,0.24219c-0.30537,0.02688 -0.65732,0.05007 -0.97266,0.07617l-2.62305,-3.92578c-0.18549,-0.28539 -0.50338,-0.45685 -0.84375,-0.45508c-0.37062,0.00148 -0.71003,0.2078 -0.88196,0.53612c-0.17194,0.32832 -0.14821,0.72481 0.06165,1.03028l2,2.99219c-1.43403,0.10344 -2.92741,0.20202 -4.48828,0.29102l0.10352,-3.35937c0.0116,-0.26955 -0.08619,-0.53235 -0.27118,-0.72874c-0.18499,-0.19639 -0.44148,-0.30971 -0.71124,-0.31423c-0.55154,-0.00865 -1.00594,0.4309 -1.01562,0.98242l-0.10742,3.51758c-1.39471,0.07231 -2.83384,0.1323 -4.27734,0.19336l0.38281,-3.87109c0.032,-0.28561 -0.06042,-0.57119 -0.25369,-0.7839c-0.19327,-0.21271 -0.46871,-0.33199 -0.75607,-0.32743c-0.51287,0.00817 -0.93641,0.40303 -0.98047,0.91406l-0.41211,4.1582c-0.42214,0.01615 -0.81688,0.04146 -1.24023,0.05664c-4.61083,0.16537 -9.15892,0.24919 -13.42383,0.29492l1.19141,-2.81836c0.1369,-0.31154 0.10599,-0.67132 -0.08204,-0.95495c-0.18803,-0.28363 -0.50739,-0.45218 -0.84765,-0.44739c-0.40155,0.00571 -0.76074,0.25107 -0.91211,0.62305l-1.53125,3.61914c-0.97926,0.00628 -1.98222,0.01958 -2.89453,0.01953l1.3457,-4.56055c0.09591,-0.30821 0.03716,-0.64375 -0.15775,-0.90105c-0.19491,-0.25729 -0.50201,-0.4047 -0.82468,-0.39583c-0.43825,0.01211 -0.81752,0.30824 -0.93555,0.73047l-1.50586,5.10938c-1.18317,-0.00749 -2.40851,-0.01194 -3.40234,-0.03125l2.82031,-6.02539c0.14821,-0.30621 0.13061,-0.66677 -0.04674,-0.95708c-0.17735,-0.29031 -0.49011,-0.47056 -0.83021,-0.47847c-0.40162,-0.00973 -0.77008,0.22181 -0.93555,0.58789l-3.18945,6.82031c-1.21964,-0.0423 -2.26328,-0.0934 -2.88281,-0.16016c-0.32909,-0.03546 -0.61234,-0.09566 -0.875,-0.16797l3.1543,-3.48242c0.2688,-0.2885 0.34299,-0.708 0.18945,-1.07119c-0.15354,-0.36319 -0.50616,-0.60226 -0.90038,-0.61045c-0.29467,-0.00593 -0.57696,0.11842 -0.77148,0.33984l-3.39258,3.74414c-0.06507,-0.07392 -0.13716,-0.13726 -0.19922,-0.2168c-0.61777,-0.79172 -1.03563,-1.95073 -1.24805,-3.18945c-0.42484,-2.47745 -0.0293,-5.01758 -0.0293,-5.01758c0.01973,-0.12136 0.02823,-0.24427 0.02539,-0.36719c0,0 -0.02392,-1.46021 -0.03125,-1.86523c4.32173,0.59127 20.68048,2.75606 28.65039,2.65234c0.35814,-0.0036 0.68702,-0.19845 0.86222,-0.51083c0.1752,-0.31239 0.16998,-0.69461 -0.0137,-1.00209c-0.18368,-0.30748 -0.51776,-0.49326 -0.87587,-0.48707c-7.74259,0.10076 -24.90674,-2.16929 -28.65625,-2.67773c-0.0285,-1.7176 -0.04142,-3.38486 -0.07812,-6.30469l3.33789,-0.87109c0.48995,-0.1217 0.81238,-0.58947 0.75178,-1.09066c-0.0606,-0.50119 -0.48523,-0.87863 -0.99007,-0.88005c-0.08972,-0.00025 -0.17906,0.01158 -0.26562,0.03516l-2.85547,0.74414c-0.01011,-0.8827 -0.01815,-1.73785 -0.02734,-2.67383l3.03125,-0.86914c0.48814,-0.13275 0.80028,-0.6091 0.72714,-1.10965c-0.07314,-0.50055 -0.50853,-0.86766 -1.01425,-0.85519c-0.09007,0.00229 -0.17942,0.01675 -0.26562,0.04297l-2.5,0.7168c-0.01111,-1.32262 -0.02961,-2.28756 -0.03711,-3.65625c-0.02945,-5.37679 -0.02447,-10.9647 0.05273,-15.61719c0.01516,-0.91383 0.04976,-1.58158 0.07227,-2.41992l4.45898,3.82813c0.27041,0.23813 0.64801,0.31239 0.98845,0.1944c0.34045,-0.11799 0.59111,-0.40999 0.65617,-0.76438c0.06506,-0.35439 -0.06554,-0.71638 -0.34188,-0.9476l-5.68555,-4.87891c0.08849,-2.21476 0.19448,-4.05654 0.32227,-4.875c0.44229,-2.83641 1.7986,-4.15499 3.10547,-4.9707c1.30067,-0.81184 2.39773,-0.95178 2.4082,-0.95312l7.43359,-0.53516l2.54883,6.46094c0.20279,0.51399 0.78386,0.76627 1.29785,0.56348c0.51399,-0.20279 0.76627,-0.78386 0.56348,-1.29785l-2.31836,-5.87695l12.7207,-0.91797l-1.09766,6.08594c-0.07931,0.35798 0.04363,0.73066 0.32038,0.97118c0.27675,0.24052 0.66293,0.31032 1.00636,0.18188c0.34343,-0.12843 0.58905,-0.4345 0.64006,-0.7976l1.19141,-6.58984l2.80859,-0.20117l-2.67578,9.20508c-0.11053,0.34626 -0.0245,0.72522 0.2247,0.98981c0.2492,0.26459 0.62233,0.37316 0.97459,0.28355c0.35225,-0.0896 0.62816,-0.36326 0.72064,-0.71477l2.88281,-9.91797zM69.08984,21.76563c-0.28794,-0.01395 -0.57179,0.00341 -0.84766,0.05078c-1.10347,0.18947 -2.01748,0.86669 -2.63281,1.75391c-1.23066,1.77444 -1.47038,4.38491 -0.57227,6.91016c0.55317,1.55439 2.11021,2.27184 3.57422,2.27539c1.46401,0.0035 2.98271,-0.53717 4.2168,-1.44336c1.23409,-0.90618 2.22974,-2.25791 2.21094,-3.89648c-0.01881,-1.63857 -1.09134,-3.29034 -3.2793,-4.70898c-0.89821,-0.58238 -1.80612,-0.89956 -2.66992,-0.94141zM69.00195,23.76172c0.45295,0.02084 1.0025,0.19226 1.66992,0.625c1.86054,1.20635 2.35806,2.25712 2.36719,3.05273c0.0091,0.79561 -0.50787,1.61065 -1.39453,2.26172c-0.88666,0.65107 -2.09574,1.05695 -3.0293,1.05469c-0.93355,-0.0023 -1.44403,-0.2447 -1.69336,-0.94531c-0.70588,-1.98475 -0.41501,-4.0253 0.33008,-5.09961c0.37254,-0.53715 0.80762,-0.83446 1.32813,-0.92383c0.13013,-0.02234 0.27089,-0.03234 0.42188,-0.02539zM38.20117,33.01758c-0.38386,-0.06628 -0.78942,0.09731 -1.01367,0.44531c-0.298,0.464 -0.16322,1.08186 0.30078,1.38086c0.464,0.299 1.08186,0.16517 1.38086,-0.29883c0.299,-0.464 0.16617,-1.08381 -0.29883,-1.38281c-0.116,-0.0745 -0.24119,-0.12244 -0.36914,-0.14453zM51.63281,33.60547c-0.28392,0.00103 -0.56795,0.01108 -0.85156,0.0293c-4.40211,0.28274 -9.00377,2.32524 -12.63477,5.48633c-3.63099,3.16109 -6.336,7.56626 -6.26562,12.5957c0.13547,9.68186 8.29521,19.51019 19.66797,18.5332c5.67444,-0.48742 10.32671,-3.49554 13.49023,-7.35156c3.16353,-3.85602 4.94113,-8.56262 4.87109,-12.91016c-0.07405,-4.55873 -2.77379,-8.70678 -6.37695,-11.70312c-3.37796,-2.80908 -7.64161,-4.69515 -11.90039,-4.67969zM51.03906,37.625c3.16824,-0.20351 6.99716,1.29118 9.9375,3.73633c2.94034,2.44515 4.88759,5.73914 4.93555,8.69141c0.05096,3.16347 -1.36857,7.14162 -3.9668,10.30859c-2.59822,3.16698 -6.27272,5.52072 -10.73828,5.9043c-8.90524,0.76501 -15.2236,-7.13533 -15.32812,-14.60547c-0.04962,-3.54655 1.90728,-6.92278 4.89453,-9.52344c2.98725,-2.60066 6.96074,-4.29946 10.26562,-4.51172zM52.12695,40.41602c-0.05906,0.00131 -0.11788,0.00784 -0.17578,0.01953c0,0 -2.77763,0.55703 -5.68945,2.07227c-2.91182,1.51524 -6.12595,4.08222 -6.64453,8.16602c-0.4967,3.91144 0.91875,7.08823 3.18555,9.17773c2.2668,2.0895 5.33046,3.15077 8.25586,3.14258c5.89813,-0.0165 11.24235,-4.89546 11.36914,-11.94531c0.07868,-4.3576 -2.55216,-7.12848 -5.06836,-8.65039c-2.5162,-1.52191 -5.0332,-1.9668 -5.0332,-1.9668c-0.06572,-0.01185 -0.13246,-0.01708 -0.19922,-0.01562zM52.1543,42.44922c0.26331,0.05217 2.15501,0.44145 4.16992,1.66016c2.15855,1.30559 4.16784,3.3419 4.10352,6.9043c-0.10919,6.07137 -4.56591,9.96789 -9.375,9.98047c-2.4286,0.0068 -5.04758,-0.91078 -6.89453,-2.61328c-1.84696,-1.7025 -2.97894,-4.12952 -2.55664,-7.45508c0.40041,-3.1532 2.95605,-5.27702 5.58398,-6.64453c2.46857,-1.28458 4.68855,-1.77192 4.96875,-1.83203zM27.3125,44.11133c-0.38386,-0.06628 -0.78747,0.09731 -1.01172,0.44531c-0.298,0.464 -0.16322,1.08186 0.30078,1.38086c0.464,0.298 1.08186,0.16517 1.38086,-0.29883c0.298,-0.464 0.16517,-1.08381 -0.29883,-1.38281c-0.116,-0.0745 -0.24314,-0.12244 -0.37109,-0.14453zM55.69336,46.75391c-0.38386,-0.06628 -0.78747,0.09536 -1.01172,0.44336c-0.298,0.464 -0.16517,1.08381 0.29883,1.38281c0.464,0.298 1.08381,0.16322 1.38281,-0.30078c0.298,-0.464 0.16322,-1.08286 -0.30078,-1.38086c-0.116,-0.0745 -0.24119,-0.12244 -0.36914,-0.14453zM48.07422,49.26172c-0.38386,-0.06628 -0.78942,0.09536 -1.01367,0.44336c-0.298,0.464 -0.16322,1.08381 0.30078,1.38281c0.464,0.299 1.08186,0.16322 1.38086,-0.30078c0.299,-0.464 0.16517,-1.08186 -0.29883,-1.38086c-0.116,-0.0745 -0.24119,-0.12244 -0.36914,-0.14453zM49.66211,56.11328c-0.38386,-0.06628 -0.78942,0.09731 -1.01367,0.44531c-0.298,0.464 -0.16322,1.08286 0.30078,1.38086c0.464,0.298 1.08186,0.16517 1.38086,-0.29883c0.299,-0.464 0.16517,-1.08381 -0.29883,-1.38281c-0.116,-0.0745 -0.24119,-0.12244 -0.36914,-0.14453z"></path></g></g></svg>