<svg xmlns="http://www.w3.org/2000/svg" xmlns:xlink="http://www.w3.org/1999/xlink" viewBox="0,0,256,256" width="64px" height="64px"><g fill="#ffffff" fill-rule="nonzero" stroke="none" stroke-width="1" stroke-linecap="butt" stroke-linejoin="miter" stroke-miterlimit="10" stroke-dasharray="" stroke-dashoffset="0" font-family="none" font-weight="none" font-size="none" text-anchor="none" style="mix-blend-mode: normal"><g transform="scale(4,4)"><path d="M30.82031,2c-3.76562,0.01953 -7.58984,0.77734 -11.26172,2.35156c-14.69531,6.3125 -21.51562,23.39844 -15.20703,38.08984c4.71484,10.97656 15.4375,17.55859 26.6875,17.55859c3.8125,0 7.68359,-0.75781 11.40234,-2.35547c14.69531,-6.30859 21.51563,-23.39453 15.20313,-38.08594c-4.73047,-11.01953 -15.52344,-17.61328 -26.82422,-17.55859zM30.83203,4c10.51953,-0.05078 20.57031,6.08594 24.98047,16.34766c5.87109,13.67969 -0.48047,29.58984 -14.16016,35.46484c-13.67969,5.87109 -29.58984,-0.48047 -35.46484,-14.16016c-5.87109,-13.67969 0.48047,-29.58984 14.16016,-35.46484c3.41797,-1.46875 6.97656,-2.17187 10.48438,-2.1875zM30.75391,7.07813c-0.41797,-0.00391 -0.83594,0.00391 -1.25391,0.02344c-0.55078,0.02734 -0.97656,0.49609 -0.95312,1.04688c0.02734,0.55078 0.52344,0.96094 1.04688,0.95313c0.76953,-0.03516 1.53516,-0.03125 2.29688,0.01563c0.01953,0 0.03906,0 0.05859,0c0.52344,0 0.96484,-0.40625 1,-0.9375c0.03125,-0.55078 -0.38672,-1.02734 -0.9375,-1.0625c-0.41797,-0.02344 -0.83594,-0.03516 -1.25781,-0.03906zM25.39844,7.75781c-0.12891,-0.02344 -0.26172,-0.01953 -0.39453,0.01563c-5.08203,1.27734 -9.60937,4.27734 -12.75391,8.4375c-0.33203,0.44141 -0.24609,1.07031 0.19531,1.39844c0.17969,0.14063 0.39453,0.20313 0.60156,0.20313c0.30469,0 0.60547,-0.13672 0.80078,-0.39453c2.86719,-3.80078 7.00391,-6.53516 11.64063,-7.70703c0.53516,-0.13281 0.86328,-0.67969 0.73047,-1.21094c-0.10156,-0.40234 -0.43359,-0.68359 -0.82031,-0.74219zM32.27734,11.61719c-8.60547,0 -17.5,5.8125 -17.5,15.54297c0,4.05469 1.26563,7.19922 3.56641,8.85547c0.67578,0.48438 1.51563,0.40234 2.25,-0.21484c1.21875,-1.01953 2.62891,-4.20312 1.92578,-5.66016c-0.39453,-0.82031 -0.57031,-1.57422 -0.57031,-2.4375c0,-3.92187 2.70703,-9.4375 8.72656,-9.4375c2.83984,0 5.65234,1.09375 7.34375,2.85547c1.21484,1.26563 1.79688,2.76172 1.73047,4.45703c-0.23047,5.76172 -3.41406,10.66406 -5.90625,10.625c-0.76562,-0.01172 -1.35547,-0.27344 -1.80859,-0.80469c-0.59766,-0.71094 -0.75391,-1.71094 -0.71875,-1.95703c0.22266,-0.93359 0.53125,-1.92187 0.82422,-2.88281c0.59375,-1.90625 1.14844,-3.71094 1.14844,-5.28125c0,-1.91406 0,-5.11719 -3.87109,-5.23047c-1.44922,-0.02734 -2.76172,0.5 -3.86328,1.56641c-1.48047,1.4375 -2.32422,3.63281 -2.32422,6.02734c0,0.96875 0.125,1.92578 0.37109,2.84766c0.14453,0.53516 0.15625,1.04688 0.04297,1.52734l-2.46484,10.44922c-0.72266,3.05078 -0.45312,6.56641 -0.10156,8.96875c0.11719,0.89844 0.76172,1.63281 1.64063,1.87109c0.19531,0.05469 0.39453,0.08203 0.59766,0.08203c0.70313,-0.00391 1.35156,-0.32031 1.84375,-0.95312c1.24609,-1.59375 2.29688,-5.40234 3.14063,-8.46484l0.07031,-0.26172c0.10938,-0.40625 0.39844,-1.52344 0.69531,-2.6875c1.08984,0.84375 2.60547,1.72656 5.18359,1.87109c3.19531,0.18359 6.16406,-0.92578 8.57422,-3.20312c3.28906,-3.10937 5.17578,-8.08984 5.17578,-13.65625c0,-3.72656 -1.59375,-7.39453 -4.37109,-10.0625c-2.92578,-2.80469 -6.95703,-4.35156 -11.35156,-4.35156zM32.28125,13.61328c3.875,0 7.41016,1.35156 9.96484,3.79688c2.38672,2.29688 3.75391,5.4375 3.75391,8.62109c0,5.01953 -1.66016,9.46875 -4.55078,12.20313c-2,1.89063 -4.46484,2.80078 -7.08984,2.66016c-2.53906,-0.14062 -3.65234,-1.08594 -4.73437,-2c-0.17187,-0.14844 -0.34375,-0.29297 -0.51562,-0.42969c-0.26562,-0.21484 -0.62109,-0.27344 -0.94141,-0.16797c-0.32422,0.10938 -0.56641,0.37109 -0.65234,0.70313c-0.39062,1.53516 -0.91406,3.59766 -1.07422,4.17969l-0.07031,0.25781c-0.75391,2.73438 -1.78516,6.48438 -2.84375,7.84375c-0.05469,0.0625 -0.14062,0.10156 -0.28906,0.09375c-0.09766,-0.02734 -0.16406,-0.10547 -0.17969,-0.21875c-0.26953,-1.83594 -0.61719,-5.34375 0.06641,-8.23437l2.46875,-10.44141c0.1875,-0.79687 0.16406,-1.66016 -0.0625,-2.50781c-0.20312,-0.75391 -0.30469,-1.53516 -0.30469,-2.33203c0,-1.82422 0.64453,-3.54297 1.72266,-4.58984c0.47656,-0.46094 1.25781,-1.00391 2.31641,-1.00391c0.03125,0 0.0625,0 0.09375,0c1.51953,0.04688 1.92969,0.45313 1.92969,3.23047c0,1.26953 -0.51562,2.92969 -1.05859,4.69141c-0.30859,0.98828 -0.625,2.01563 -0.85937,3.01563c-0.19922,0.83203 0.14063,2.43359 1.02734,3.56641c0.82813,1.0625 2.01172,1.63672 3.41797,1.65234h0.05469c4.22266,0 7.63672,-6.60156 7.875,-12.54297c0.08984,-2.23047 -0.69922,-4.27734 -2.28125,-5.92578c-2.08984,-2.17187 -5.375,-3.46875 -8.78906,-3.46875c-5.26953,0 -10.72656,4.27734 -10.72656,11.4375c0,1.16406 0.24219,2.21094 0.75391,3.26563c0.16797,0.64453 -0.75391,2.79688 -1.36328,3.29297c-1.63281,-1.30078 -2.5625,-3.87109 -2.5625,-7.10547c0,-8.47656 7.87891,-13.54297 15.50391,-13.54297zM47.07031,43.05859c-0.25391,0.03516 -0.49219,0.16797 -0.66016,0.39063c-0.32812,0.44141 -0.23828,1.07031 0.20313,1.39844l1.60547,1.19922c0.17969,0.13672 0.39063,0.19922 0.59766,0.19922c0.30469,0 0.60547,-0.14062 0.80078,-0.40234c0.33203,-0.44141 0.24219,-1.07031 -0.19922,-1.39844l-1.60547,-1.19531c-0.22266,-0.16797 -0.48828,-0.22656 -0.74219,-0.19141zM43.78125,46.70313c-0.25781,-0.03125 -0.51953,0.03516 -0.73828,0.20313c-0.43359,0.34375 -0.50781,0.97266 -0.16797,1.40625l1.23828,1.57422c0.19531,0.25 0.49219,0.37891 0.78906,0.37891c0.21484,0 0.43359,-0.07031 0.61328,-0.21484c0.4375,-0.34375 0.51172,-0.97266 0.16797,-1.40625l-1.23828,-1.57031c-0.17187,-0.21484 -0.41016,-0.34375 -0.66406,-0.37109zM39.28125,49.29688c-0.13281,0 -0.26172,0.02734 -0.39062,0.07813c-0.50781,0.21875 -0.74219,0.80859 -0.52344,1.3125l0.78906,1.83984c0.16406,0.37891 0.53125,0.60547 0.92188,0.60547c0.12891,0 0.26172,-0.02344 0.39063,-0.08203c0.51172,-0.21484 0.74219,-0.80469 0.52734,-1.3125l-0.79297,-1.83594c-0.16406,-0.38281 -0.53516,-0.60937 -0.92187,-0.60547zM34.24219,50.6875c-0.54687,0.07813 -0.92578,0.58594 -0.84766,1.13281l0.28906,1.98047c0.07031,0.49609 0.5,0.85547 0.98828,0.85547c0.04688,0 0.09375,-0.00391 0.14453,-0.01172c0.54688,-0.07812 0.92578,-0.58594 0.84375,-1.13281l-0.28516,-1.98047c-0.07812,-0.54687 -0.58594,-0.93359 -1.13281,-0.84375zM29.41406,50.75c-0.55078,-0.06641 -1.04687,0.32813 -1.11328,0.875l-0.23437,1.98438c-0.0625,0.55078 0.32813,1.04688 0.875,1.10938c0.04297,0.00781 0.08203,0.01172 0.12109,0.01172c0.5,0 0.93359,-0.375 0.99219,-0.88672l0.23438,-1.98437c0.06641,-0.54687 -0.32812,-1.04297 -0.875,-1.10937z"></path></g></g></svg>