<svg xmlns="http://www.w3.org/2000/svg" xmlns:xlink="http://www.w3.org/1999/xlink" viewBox="0,0,300,150" width="64px" height="64px"><g fill="#ffffff" fill-rule="nonzero" stroke="none" stroke-width="1" stroke-linecap="butt" stroke-linejoin="miter" stroke-miterlimit="10" stroke-dasharray="" stroke-dashoffset="0" font-family="none" font-weight="none" font-size="none" text-anchor="none" style="mix-blend-mode: normal"><g transform="scale(4,4)"><path d="M42.03711,9.77539c-0.56191,-0.00838 -1.1251,0.02753 -1.68164,0.10938c-2.34895,0.34543 -4.60487,1.50547 -6.17969,3.55273c-1.57482,2.04726 -2.43733,4.94378 -2.17383,8.63281c0.02502,0.35664 0.23845,0.67283 0.55985,0.82942c0.3214,0.15659 0.70194,0.12978 0.99821,-0.07032c0.29627,-0.2001 0.46326,-0.54309 0.43803,-0.89972c-0.2365,-3.31097 0.52599,-5.66445 1.76367,-7.27344c1.23768,-1.60899 2.98177,-2.51145 4.88281,-2.79102c3.80209,-0.55913 8.07491,1.45714 9.40625,5.45117c0.13626,0.40844 0.51865,0.68382 0.94922,0.68359h4.13086l-2.96289,4.44531c-0.10951,0.16426 -0.16795,0.35727 -0.16797,0.55469c0,9.33333 -2.32064,15.77155 -5.80078,20.17773c-3.48014,4.40619 -8.15798,6.82646 -13.05273,7.97461c-4.89475,1.14815 -9.99326,0.99865 -14.14258,0.25391c-2.90061,-0.52062 -5.01224,-1.35866 -6.53711,-2.14453c2.28243,-0.60267 7.12665,-2.00623 12.33984,-5.4668c3.17135,0.76207 5.49651,0.71175 7.10352,0.05273c1.67252,-0.68588 2.56576,-2.10334 2.51367,-3.45312c-0.05208,-1.34978 -0.99051,-2.59168 -2.39844,-2.94336c-1.40793,-0.35168 -3.11307,0.21358 -4.73437,1.84375c-0.85953,0.86422 -1.99844,1.52317 -3.04883,2.25586c-6.59401,-1.89387 -10.14605,-5.43458 -12.04688,-8.59375c-1.28588,-2.13713 -1.72628,-3.71527 -1.94922,-4.79102c0.81752,0.09598 1.72481,0.198 3.7793,0.48047c0.04156,0.07223 0.07321,0.16737 0.11523,0.23828c2.10903,3.55899 4.69512,5.4485 6.54297,6.06445c1.01879,0.3396 2.05793,0.16431 2.83203,-0.32227c0.7741,-0.48658 1.31212,-1.24223 1.56641,-2.08984c0.25428,-0.84761 0.21928,-1.82149 -0.25391,-2.67773c-0.47319,-0.85625 -1.37669,-1.52777 -2.58594,-1.83008c-1.77174,-0.44293 -4.44524,-0.83848 -6.88086,-1.1875c-1.3909,-2.70853 -2.38106,-6.41758 -2.37695,-11.29687c2.63853,3.12217 6.06173,6.13502 10.19922,8.22266c5.02835,2.53714 10.77373,3.78839 16.10352,2.18945c0.35632,-0.09035 0.63436,-0.36888 0.72407,-0.72537c0.08971,-0.35648 -0.02338,-0.73344 -0.2945,-0.98168c-0.27112,-0.24824 -0.65657,-0.32773 -1.00378,-0.20701c-4.67021,1.40106 -9.91325,0.31882 -14.62891,-2.06055c-4.71565,-2.37936 -8.86533,-6.05149 -11.25977,-9.54687c-0.24045,-0.35054 -0.67621,-0.51079 -1.08647,-0.39954c-0.41026,0.11125 -0.70538,0.46969 -0.73579,0.89368c-0.40954,5.73362 0.5159,10.16756 1.9707,13.55469c-1.88155,-0.2395 -3.86133,-0.47852 -3.86133,-0.47852c-0.29742,-0.03318 -0.59407,0.06858 -0.80851,0.27734c-0.21443,0.20876 -0.32411,0.50258 -0.29891,0.80078c0,0 0.27637,3.24433 2.47852,6.9043c1.96976,3.27375 5.67209,6.85167 11.83789,8.98438c-5.81883,3.39552 -12.54687,5.05273 -12.54687,5.05273c-0.35393,0.08225 -0.63541,0.35001 -0.73523,0.69939c-0.09982,0.34939 -0.00229,0.72543 0.25476,0.98225c1.61534,1.61534 4.97744,2.88147 9.35938,3.66797c4.38193,0.7865 9.72092,0.9495 14.95117,-0.27734c5.23025,-1.22685 10.36491,-3.86908 14.16602,-8.68164c3.75381,-4.75267 6.14942,-11.6007 6.20898,-21.08008l3.85352,-5.78125c0.20449,-0.30687 0.22352,-0.70136 0.04952,-1.02649c-0.174,-0.32513 -0.51279,-0.52812 -0.88155,-0.5282h-5.43945c-1.68302,-3.93107 -5.59006,-6.16593 -9.52344,-6.22461zM16.91211,29.14063c1.75197,0.27499 3.67179,0.5366 4.8457,0.83008c0.79075,0.19769 1.13725,0.52617 1.32031,0.85742c0.18306,0.33125 0.21056,0.73238 0.08984,1.13477c-0.12072,0.40239 -0.39519,0.77173 -0.71484,0.97266c-0.31965,0.20092 -0.65551,0.27564 -1.13672,0.11523c-0.95055,-0.31685 -2.73856,-1.72473 -4.4043,-3.91016zM31.04688,39.35352c0.18943,-0.01429 0.3535,0.00247 0.49219,0.03711c0.55476,0.13857 0.8656,0.58336 0.88477,1.08008c0.01917,0.49672 -0.19519,1.08597 -1.27148,1.52734c-0.78329,0.32122 -2.25205,0.351 -4.08789,0.11523c0.55903,-0.46088 1.1406,-0.90152 1.64453,-1.4082c0.97815,-0.9835 1.76959,-1.3087 2.33789,-1.35156z"></path></g></g></svg>