<?xml version="1.0" ?>
<svg xmlns="http://www.w3.org/2000/svg" xmlns:xlink="http://www.w3.org/1999/xlink" version="1.1" viewBox="0 0 64 64" style="enable-background:new 0 0 64 64;" xml:space="preserve">
  <g id="flag"/>
  <g id="dwarf"/>
  <g id="weapon"/>
  <g id="magic_potion"/>
  <g id="magic_fire"/>
  <g id="elf"/>
  <g id="crown"/>
  <g id="tower"/>
  <g id="magic_broom"/>
  <g id="knight"/>
  <g id="magic_book">
    <g>
      <path fill="#FFFFFF" d="M54,53c0.6,0,1-0.4,1-1V4c0-0.6-0.4-1-1-1H14c-2.8,0-5,2.2-5,5v48c0,2.8,2.2,5,5,5h40c0.6,0,1-0.4,1-1s-0.4-1-1-1h-1v-6    H54z M14,5h39v46H14c-1.1,0-2.2,0.4-3,1V8C11,6.3,12.3,5,14,5z M51,59H14c-1.7,0-3-1.3-3-3s1.3-3,3-3h37V59z"/>
      <path fill="#FFFFFF" d="M32,38.4c8.8,0,16-7.2,16-16c0-5.1-2.4-9.9-6.5-12.9c-0.4-0.3-1-0.2-1.3,0.1c-0.3,0.4-0.3,1,0,1.3c1.8,2,2.9,4.7,2.9,7.4    c0,3.6-1.8,6.8-4.5,8.8c0-0.2,0-0.3,0-0.5l-1.9-5.8l5-3.6c0.4-0.3,0.5-0.7,0.4-1.1s-0.5-0.7-1-0.7h-6.1L33,9.7    C32.8,9.3,32.4,9,32,9s-0.8,0.3-1,0.7l-1.9,5.8H23c-0.4,0-0.8,0.3-1,0.7s0,0.9,0.4,1.1l5,3.6l-1.9,5.8c-0.1,0.2-0.1,0.4,0,0.5    c-2.7-2-4.5-5.2-4.5-8.8c0-2.7,1-5.4,2.9-7.4c0.3-0.4,0.3-1,0-1.3c-0.3-0.4-0.9-0.4-1.3-0.1c-4.1,3-6.5,7.8-6.5,12.9    C16,31.3,23.2,38.4,32,38.4z M26.1,17.5h3.8c0.4,0,0.8-0.3,1-0.7l1.2-3.6l1.2,3.6c0.1,0.4,0.5,0.7,1,0.7h3.8l-3.1,2.2    c-0.4,0.3-0.5,0.7-0.4,1.1l1.2,3.6l-3.1-2.2C32.4,22.1,32.2,22,32,22s-0.4,0.1-0.6,0.2l-3.1,2.2l1.2-3.6c0.1-0.4,0-0.9-0.4-1.1    L26.1,17.5z M27,27.9l5-3.6l5,3.6c0.1,0.1,0.3,0.1,0.4,0.2c-1.6,0.9-3.4,1.4-5.4,1.4c-1.9,0-3.8-0.5-5.4-1.4    C26.8,28,26.9,28,27,27.9z M19.1,17.1c0,0.4-0.1,0.9-0.1,1.3c0,7.2,5.8,13,13,13s13-5.8,13-13c0-0.5,0-0.9-0.1-1.3    c0.7,1.7,1.1,3.5,1.1,5.3c0,7.7-6.3,14-14,14s-14-6.3-14-14C18,20.6,18.4,18.8,19.1,17.1z"/>
      <path fill="#FFFFFF" d="M41,43c0.6,0,1-0.4,1-1s-0.4-1-1-1H23c-0.6,0-1,0.4-1,1s0.4,1,1,1H41z"/>
      <path fill="#FFFFFF" d="M46,45H18c-0.6,0-1,0.4-1,1s0.4,1,1,1h28c0.6,0,1-0.4,1-1S46.6,45,46,45z"/>
    </g>
  </g>
  <g id="unicorn"/>
  <g id="wizard"/>
  <g id="witch"/>
  <g id="magic_wand"/>
  <g id="queen"/>
  <g id="forest"/>
  <g id="home_tree"/>
  <g id="king"/>
  <g id="castle"/>
</svg>
